<svg width="32" height="32" viewBox="0 0 32 32" fill="none" xmlns="http://www.w3.org/2000/svg">
<path d="M21.6 3.19995H11.2C9.4327 3.19995 8.00001 4.63264 8.00001 6.39995V25.6C8.00001 27.3673 9.4327 28.8 11.2 28.8H24C25.7673 28.8 27.2 27.3673 27.2 25.6V8.79995L21.6 3.19995Z" fill="#E54D2E"/>
<path d="M4.79999 14.4C4.79999 13.5164 5.51633 12.8 6.39999 12.8H24C24.8836 12.8 25.6 13.5164 25.6 14.4V24C25.6 24.8837 24.8836 25.6 24 25.6H6.39999C5.51633 25.6 4.79999 24.8837 4.79999 24V14.4Z" fill="#CA3214"/>
<path d="M21.6 8.79995V3.19995L27.2 8.79995H21.6Z" fill="#EA9280"/>
<path d="M23.7022 14.2912V15.6912C23.635 15.6837 23.5716 15.68 23.5118 15.68C23.4521 15.68 23.3812 15.68 23.299 15.68C23.0676 15.68 22.8921 15.721 22.7726 15.8032C22.6606 15.8853 22.6046 16.057 22.6046 16.3184V16.4976H23.691V17.976H22.6046V22.4H20.8126V17.976H20.051V16.4976H20.8126V16.2176C20.8126 15.7994 20.891 15.4448 21.0478 15.1536C21.2046 14.8624 21.4473 14.6421 21.7758 14.4928C22.1044 14.336 22.5262 14.2576 23.0414 14.2576C23.1684 14.2576 23.2804 14.2613 23.3774 14.2688C23.4745 14.2688 23.5828 14.2762 23.7022 14.2912Z" fill="#FFFCFC"/>
<path d="M16.0252 22.5232C15.4876 22.5232 15.0284 22.3851 14.6476 22.1088C14.2668 21.8325 13.9756 21.4629 13.774 21C13.5799 20.5296 13.4828 20.0144 13.4828 19.4544C13.4828 18.8869 13.5799 18.3717 13.774 17.9088C13.9756 17.4459 14.2668 17.0763 14.6476 16.8C15.0284 16.5163 15.4876 16.3744 16.0252 16.3744C16.3762 16.3744 16.6898 16.4416 16.966 16.576C17.2423 16.7029 17.4626 16.8747 17.6268 17.0912V14.3584H19.4188V22.4H17.6268V21.8176C17.4626 22.0267 17.2423 22.1984 16.966 22.3328C16.6898 22.4597 16.3762 22.5232 16.0252 22.5232ZM17.638 19.2976C17.638 19.0736 17.6082 18.8757 17.5484 18.704C17.4962 18.5323 17.4178 18.3867 17.3132 18.2672C17.2087 18.1477 17.0855 18.0581 16.9436 17.9984C16.8092 17.9387 16.6562 17.9088 16.4844 17.9088C16.2231 17.9088 16.0028 17.976 15.8236 18.1104C15.6444 18.2373 15.51 18.4165 15.4204 18.648C15.3308 18.8795 15.286 19.1483 15.286 19.4544C15.286 19.7531 15.3308 20.0219 15.4204 20.2608C15.51 20.4923 15.6444 20.6752 15.8236 20.8096C16.0028 20.9365 16.2231 21 16.4844 21C16.6562 21 16.8092 20.9701 16.9436 20.9104C17.0855 20.8507 17.2087 20.7611 17.3132 20.6416C17.4178 20.5221 17.4962 20.3765 17.5484 20.2048C17.6082 20.0331 17.638 19.8352 17.638 19.6112V19.2976Z" fill="#FFFCFC"/>
<path d="M10.376 22.5232C10.0251 22.5232 9.71146 22.4597 9.43519 22.3328C9.16639 22.1984 8.94612 22.0267 8.77439 21.8176V24.3712H6.98239V16.4976H8.77439V17.0912C8.94612 16.8747 9.16639 16.7029 9.43519 16.576C9.71146 16.4416 10.0251 16.3744 10.376 16.3744C10.9211 16.3744 11.3803 16.5163 11.7536 16.8C12.1344 17.0763 12.4219 17.4459 12.616 17.9088C12.8176 18.3717 12.9184 18.8869 12.9184 19.4544C12.9184 20.0144 12.8176 20.5296 12.616 21C12.4219 21.4629 12.1344 21.8325 11.7536 22.1088C11.3803 22.3851 10.9211 22.5232 10.376 22.5232ZM8.76319 19.2976V19.6112C8.76319 19.8352 8.78932 20.0331 8.84159 20.2048C8.90132 20.3765 8.98346 20.5221 9.08799 20.6416C9.19252 20.7611 9.31572 20.8507 9.45759 20.9104C9.59946 20.9701 9.75252 21 9.91679 21C10.1781 21 10.3984 20.9365 10.5776 20.8096C10.7568 20.6752 10.8912 20.4923 10.9808 20.2608C11.0704 20.0219 11.1152 19.7531 11.1152 19.4544C11.1152 19.1483 11.0704 18.8795 10.9808 18.648C10.8912 18.4165 10.7568 18.2373 10.5776 18.1104C10.3984 17.976 10.1781 17.9088 9.91679 17.9088C9.75252 17.9088 9.59946 17.9387 9.45759 17.9984C9.31572 18.0581 9.19252 18.1477 9.08799 18.2672C8.98346 18.3867 8.90132 18.5323 8.84159 18.704C8.78932 18.8757 8.76319 19.0736 8.76319 19.2976Z" fill="#FFFCFC"/>
</svg>
