<svg width="25" height="24" viewBox="0 0 25 24" fill="none" xmlns="http://www.w3.org/2000/svg">
<path fill-rule="evenodd" clip-rule="evenodd" d="M17.7625 4.20733C17.9577 4.01207 18.2743 4.01207 18.4696 4.20733L20.9492 6.68699C21.1445 6.88225 21.1445 7.19883 20.9492 7.39409L16.0473 12.296C15.9713 12.372 15.8835 12.4353 15.7874 12.4834L10.9007 14.9267C10.7082 15.023 10.4757 14.9852 10.3235 14.8331C10.1713 14.6809 10.1336 14.4484 10.2298 14.2559L12.6732 9.36916C12.7213 9.27303 12.7845 9.18527 12.8605 9.10927L17.7625 4.20733ZM18.116 5.26799L13.5676 9.81637L12.2895 12.3726L12.784 12.867L15.3402 11.5889L19.8886 7.04054L18.116 5.26799ZM14.8961 5.30047L13.8961 6.30047H8.11741C7.68912 6.30047 7.39797 6.30086 7.17293 6.31925C6.95372 6.33716 6.84162 6.36962 6.76342 6.40947C6.57526 6.50534 6.42228 6.65832 6.3264 6.84648C6.28656 6.92468 6.25409 7.03679 6.23618 7.25599C6.2178 7.48104 6.21741 7.77218 6.21741 8.20047V17.0386C6.21741 17.4669 6.2178 17.758 6.23618 17.9831C6.25409 18.2023 6.28656 18.3144 6.3264 18.3926C6.42228 18.5807 6.57526 18.7337 6.76342 18.8296C6.84162 18.8694 6.95372 18.9019 7.17293 18.9198C7.39797 18.9382 7.68912 18.9386 8.11741 18.9386H16.9555C17.3838 18.9386 17.675 18.9382 17.9 18.9198C18.1192 18.9019 18.2313 18.8694 18.3095 18.8296C18.4977 18.7337 18.6507 18.5807 18.7465 18.3926C18.7864 18.3144 18.8188 18.2023 18.8367 17.9831C18.8551 17.758 18.8555 17.4669 18.8555 17.0386V11.2597L19.8555 10.2597V17.0386V17.0592C19.8555 17.4617 19.8555 17.7939 19.8334 18.0645C19.8105 18.3455 19.7612 18.6039 19.6375 18.8466C19.4458 19.2229 19.1398 19.5289 18.7635 19.7206C18.5208 19.8442 18.2625 19.8935 17.9814 19.9165C17.7108 19.9386 17.3787 19.9386 16.9762 19.9386H16.9555H8.11741H8.09674C7.69427 19.9386 7.36209 19.9386 7.09149 19.9165C6.81045 19.8935 6.55209 19.8442 6.30943 19.7206C5.9331 19.5289 5.62714 19.2229 5.4354 18.8466C5.31175 18.6039 5.26247 18.3455 5.2395 18.0645C5.2174 17.7939 5.2174 17.4617 5.21741 17.0592V17.0592V17.0592V17.0386V8.20047V8.17982V8.17981V8.1798C5.2174 7.77733 5.2174 7.44515 5.2395 7.17456C5.26247 6.89351 5.31175 6.63516 5.4354 6.39249C5.62714 6.01617 5.9331 5.71021 6.30943 5.51846C6.55209 5.39482 6.81045 5.34553 7.0915 5.32257C7.36209 5.30046 7.69427 5.30047 8.09675 5.30047H8.09676H8.11741H14.8961Z" fill="#90908C"/>
<path d="M18.4696 4.20733L18.2928 4.38411V4.38411L18.4696 4.20733ZM17.7625 4.20733L17.5857 4.03055L17.5857 4.03055L17.7625 4.20733ZM20.9492 6.68699L21.126 6.51021L20.9492 6.68699ZM20.9492 7.39409L20.7724 7.21732L20.9492 7.39409ZM16.0473 12.296L16.2241 12.4728L16.0473 12.296ZM15.7874 12.4834L15.8992 12.707V12.707L15.7874 12.4834ZM10.9007 14.9267L10.7889 14.7031L10.7889 14.7031L10.9007 14.9267ZM10.3235 14.8331L10.1467 15.0098H10.1467L10.3235 14.8331ZM10.2298 14.2559L10.0062 14.1441L10.2298 14.2559ZM12.6732 9.36916L12.8968 9.48096L12.6732 9.36916ZM12.8605 9.10927L12.6837 8.93249L12.6837 8.93249L12.8605 9.10927ZM13.5676 9.81637L13.3909 9.6396L13.3622 9.66828L13.344 9.70457L13.5676 9.81637ZM18.116 5.26799L18.2928 5.09121L18.116 4.91444L17.9392 5.09121L18.116 5.26799ZM12.2895 12.3726L12.0659 12.2608L11.9853 12.4219L12.1128 12.5493L12.2895 12.3726ZM12.784 12.867L12.6072 13.0438L12.7346 13.1712L12.8958 13.0906L12.784 12.867ZM15.3402 11.5889L15.452 11.8125L15.4883 11.7944L15.517 11.7657L15.3402 11.5889ZM19.8886 7.04054L20.0653 7.21732L20.2421 7.04054L20.0653 6.86376L19.8886 7.04054ZM13.8961 6.30047V6.55047H13.9997L14.0729 6.47725L13.8961 6.30047ZM14.8961 5.30047L15.0729 5.47725L15.4997 5.05047H14.8961V5.30047ZM7.17293 6.31925L7.15257 6.07008H7.15257L7.17293 6.31925ZM6.76342 6.40947L6.87692 6.63222L6.87692 6.63222L6.76342 6.40947ZM6.3264 6.84648L6.54915 6.95998L6.54915 6.95998L6.3264 6.84648ZM6.23618 7.25599L5.98701 7.23564V7.23564L6.23618 7.25599ZM6.23618 17.9831L5.98701 18.0034L6.23618 17.9831ZM6.3264 18.3926L6.54915 18.2791L6.54915 18.2791L6.3264 18.3926ZM6.76342 18.8296L6.64992 19.0523H6.64992L6.76342 18.8296ZM7.17293 18.9198L7.15257 19.169H7.15257L7.17293 18.9198ZM17.9 18.9198L17.9204 19.169L17.9 18.9198ZM18.3095 18.8296L18.196 18.6068H18.196L18.3095 18.8296ZM18.7465 18.3926L18.5238 18.2791L18.7465 18.3926ZM18.8367 17.9831L19.0859 18.0034L18.8367 17.9831ZM18.8555 11.2597L18.6787 11.0829L18.6055 11.1561V11.2597H18.8555ZM19.8555 10.2597H20.1055V9.65614L19.6787 10.0829L19.8555 10.2597ZM19.8555 17.0592H19.6055V17.0593L19.8555 17.0592ZM19.8334 18.0645L20.0826 18.0849L19.8334 18.0645ZM19.6375 18.8466L19.4148 18.7331L19.6375 18.8466ZM18.7635 19.7206L18.65 19.4978H18.65L18.7635 19.7206ZM17.9814 19.9165L18.0018 20.1657L17.9814 19.9165ZM16.9762 19.9386L16.9762 19.6886H16.9762V19.9386ZM8.09674 19.9386V19.6886H8.09674L8.09674 19.9386ZM7.09149 19.9165L7.07114 20.1657H7.07114L7.09149 19.9165ZM6.30943 19.7206L6.42292 19.4978H6.42292L6.30943 19.7206ZM5.4354 18.8466L5.21264 18.9601H5.21264L5.4354 18.8466ZM5.2395 18.0645L4.99034 18.0849H4.99034L5.2395 18.0645ZM5.21741 17.0592L5.46741 17.0593V17.0592H5.21741ZM5.21741 8.1798H5.46741V8.1798L5.21741 8.1798ZM5.2395 7.17456L4.99034 7.1542V7.1542L5.2395 7.17456ZM5.4354 6.39249L5.21264 6.279H5.21264L5.4354 6.39249ZM6.30943 5.51846L6.42292 5.74121L6.30943 5.51846ZM7.0915 5.32257L7.07114 5.0734L7.0915 5.32257ZM8.09675 5.30047L8.09674 5.55047H8.09675V5.30047ZM18.6463 4.03055C18.3535 3.73766 17.8786 3.73766 17.5857 4.03055L17.9392 4.38411C18.0369 4.28647 18.1952 4.28648 18.2928 4.38411L18.6463 4.03055ZM21.126 6.51021L18.6463 4.03055L18.2928 4.38411L20.7724 6.86376L21.126 6.51021ZM21.126 7.57087C21.4189 7.27798 21.4189 6.8031 21.126 6.51021L20.7724 6.86376C20.8701 6.96139 20.8701 7.11968 20.7724 7.21732L21.126 7.57087ZM16.2241 12.4728L21.126 7.57087L20.7724 7.21732L15.8705 12.1193L16.2241 12.4728ZM15.8992 12.707C16.0194 12.6469 16.1291 12.5678 16.2241 12.4728L15.8705 12.1193C15.8135 12.1763 15.7477 12.2237 15.6756 12.2597L15.8992 12.707ZM11.0125 15.1503L15.8992 12.707L15.6756 12.2597L10.7889 14.7031L11.0125 15.1503ZM10.1467 15.0098C10.375 15.2381 10.7237 15.2947 11.0125 15.1503L10.7889 14.7031C10.6926 14.7512 10.5764 14.7324 10.5003 14.6563L10.1467 15.0098ZM10.0062 14.1441C9.86186 14.4328 9.91845 14.7816 10.1467 15.0098L10.5003 14.6563C10.4242 14.5802 10.4053 14.464 10.4534 14.3677L10.0062 14.1441ZM12.4496 9.25736L10.0062 14.1441L10.4534 14.3677L12.8968 9.48096L12.4496 9.25736ZM12.6837 8.93249C12.5887 9.02749 12.5097 9.13719 12.4496 9.25736L12.8968 9.48096C12.9329 9.40886 12.9803 9.34305 13.0373 9.28604L12.6837 8.93249ZM17.5857 4.03055L12.6837 8.93249L13.0373 9.28604L17.9392 4.38411L17.5857 4.03055ZM13.7444 9.99315L18.2928 5.44477L17.9392 5.09121L13.3909 9.6396L13.7444 9.99315ZM12.5131 12.4844L13.7912 9.92818L13.344 9.70457L12.0659 12.2608L12.5131 12.4844ZM12.9608 12.6902L12.4663 12.1958L12.1128 12.5493L12.6072 13.0438L12.9608 12.6902ZM15.2284 11.3653L12.6722 12.6434L12.8958 13.0906L15.452 11.8125L15.2284 11.3653ZM19.7118 6.86376L15.1634 11.4121L15.517 11.7657L20.0653 7.21732L19.7118 6.86376ZM17.9392 5.44477L19.7118 7.21732L20.0653 6.86376L18.2928 5.09121L17.9392 5.44477ZM14.0729 6.47725L15.0729 5.47725L14.7193 5.1237L13.7193 6.1237L14.0729 6.47725ZM8.11741 6.55047H13.8961V6.05047H8.11741V6.55047ZM7.19328 6.56842C7.40576 6.55106 7.68488 6.55047 8.11741 6.55047V6.05047C7.69336 6.05047 7.39018 6.05067 7.15257 6.07008L7.19328 6.56842ZM6.87692 6.63222C6.91393 6.61336 6.98942 6.58508 7.19329 6.56842L7.15257 6.07008C6.91802 6.08924 6.7693 6.12589 6.64992 6.18672L6.87692 6.63222ZM6.54915 6.95998C6.62106 6.81886 6.73579 6.70413 6.87692 6.63222L6.64992 6.18672C6.41472 6.30656 6.22349 6.49778 6.10365 6.73299L6.54915 6.95998ZM6.48535 7.27635C6.50201 7.07249 6.53029 6.997 6.54915 6.95998L6.10365 6.73299C6.04282 6.85237 6.00618 7.00109 5.98701 7.23564L6.48535 7.27635ZM6.46741 8.20047C6.46741 7.76795 6.46799 7.48883 6.48535 7.27635L5.98701 7.23564C5.9676 7.47325 5.96741 7.77642 5.96741 8.20047H6.46741ZM6.46741 17.0386V8.20047H5.96741V17.0386H6.46741ZM6.48535 17.9627C6.46799 17.7502 6.46741 17.4711 6.46741 17.0386H5.96741C5.96741 17.4626 5.9676 17.7658 5.98701 18.0034L6.48535 17.9627ZM6.54915 18.2791C6.53029 18.2421 6.50201 18.1666 6.48535 17.9627L5.98701 18.0034C6.00618 18.238 6.04282 18.3867 6.10365 18.5061L6.54915 18.2791ZM6.87691 18.6068C6.73579 18.5349 6.62106 18.4202 6.54915 18.2791L6.10365 18.5061C6.22349 18.7413 6.41472 18.9325 6.64992 19.0523L6.87691 18.6068ZM7.19328 18.6706C6.98942 18.654 6.91393 18.6257 6.87691 18.6068L6.64992 19.0523C6.7693 19.1132 6.91802 19.1498 7.15257 19.169L7.19328 18.6706ZM8.11741 18.6886C7.68488 18.6886 7.40576 18.688 7.19328 18.6706L7.15257 19.169C7.39018 19.1884 7.69335 19.1886 8.11741 19.1886V18.6886ZM16.9555 18.6886H8.11741V19.1886H16.9555V18.6886ZM17.8796 18.6706C17.6672 18.688 17.388 18.6886 16.9555 18.6886V19.1886C17.3796 19.1886 17.6827 19.1884 17.9204 19.169L17.8796 18.6706ZM18.196 18.6068C18.159 18.6257 18.0835 18.654 17.8796 18.6706L17.9204 19.169C18.1549 19.1498 18.3036 19.1132 18.423 19.0523L18.196 18.6068ZM18.5238 18.2791C18.4519 18.4202 18.3371 18.5349 18.196 18.6068L18.423 19.0523C18.6582 18.9325 18.8494 18.7413 18.9693 18.5061L18.5238 18.2791ZM18.5876 17.9627C18.5709 18.1666 18.5426 18.2421 18.5238 18.2791L18.9693 18.5061C19.0301 18.3867 19.0667 18.238 19.0859 18.0034L18.5876 17.9627ZM18.6055 17.0386C18.6055 17.4711 18.6049 17.7502 18.5876 17.9627L19.0859 18.0034C19.1053 17.7658 19.1055 17.4626 19.1055 17.0386H18.6055ZM18.6055 11.2597V17.0386H19.1055V11.2597H18.6055ZM19.6787 10.0829L18.6787 11.0829L19.0323 11.4365L20.0323 10.4365L19.6787 10.0829ZM20.1055 17.0386V10.2597H19.6055V17.0386H20.1055ZM20.1055 17.0592V17.0386H19.6055V17.0592H20.1055ZM20.0826 18.0849C20.1057 17.8018 20.1055 17.458 20.1055 17.0592L19.6055 17.0593C19.6055 17.4654 19.6053 17.786 19.5843 18.0441L20.0826 18.0849ZM19.8603 18.9601C20.0049 18.6763 20.0584 18.3814 20.0826 18.0849L19.5843 18.0441C19.5626 18.3097 19.5175 18.5315 19.4148 18.7331L19.8603 18.9601ZM18.877 19.9433C19.3004 19.7276 19.6446 19.3834 19.8603 18.9601L19.4148 18.7331C19.247 19.0624 18.9793 19.3301 18.65 19.4978L18.877 19.9433ZM18.0018 20.1657C18.2984 20.1414 18.5932 20.0879 18.877 19.9433L18.65 19.4978C18.4484 19.6006 18.2266 19.6456 17.9611 19.6673L18.0018 20.1657ZM16.9762 20.1886C17.375 20.1886 17.7188 20.1888 18.0018 20.1657L17.9611 19.6673C17.7029 19.6884 17.3824 19.6886 16.9762 19.6886L16.9762 20.1886ZM16.9555 20.1886H16.9762V19.6886H16.9555V20.1886ZM8.11741 20.1886H16.9555V19.6886H8.11741V20.1886ZM8.09674 20.1886H8.11741V19.6886H8.09674V20.1886ZM7.07114 20.1657C7.35417 20.1888 7.69796 20.1886 8.09675 20.1886L8.09674 19.6886C7.69057 19.6886 7.37001 19.6884 7.11185 19.6673L7.07114 20.1657ZM6.19593 19.9433C6.47968 20.0879 6.77457 20.1414 7.07114 20.1657L7.11185 19.6673C6.84632 19.6456 6.62451 19.6006 6.42292 19.4978L6.19593 19.9433ZM5.21264 18.9601C5.42836 19.3834 5.77256 19.7276 6.19593 19.9433L6.42292 19.4978C6.09364 19.3301 5.82593 19.0624 5.65815 18.7331L5.21264 18.9601ZM4.99034 18.0849C5.01457 18.3814 5.06806 18.6763 5.21264 18.9601L5.65815 18.7331C5.55543 18.5315 5.51037 18.3097 5.48867 18.0441L4.99034 18.0849ZM4.96741 17.0592C4.9674 17.458 4.96721 17.8018 4.99034 18.0849L5.48867 18.0441C5.46758 17.786 5.4674 17.4654 5.46741 17.0593L4.96741 17.0592ZM4.96741 17.0592V17.0592H5.46741V17.0592H4.96741ZM4.96741 17.0592V17.0592H5.46741V17.0592H4.96741ZM4.96741 17.0386V17.0592H5.46741V17.0386H4.96741ZM4.96741 8.20047V17.0386H5.46741V8.20047H4.96741ZM4.96741 8.17982V8.20047H5.46741V8.17982H4.96741ZM4.96741 8.17981V8.17982H5.46741V8.17981H4.96741ZM4.96741 8.1798V8.17981H5.46741V8.1798H4.96741ZM4.99034 7.1542C4.96721 7.43723 4.9674 7.78102 4.96741 8.17981L5.46741 8.1798C5.4674 7.77363 5.46758 7.45308 5.48867 7.19492L4.99034 7.1542ZM5.21264 6.279C5.06806 6.56275 5.01457 6.85764 4.99034 7.1542L5.48867 7.19492C5.51037 6.92939 5.55543 6.70758 5.65815 6.50599L5.21264 6.279ZM6.19593 5.29571C5.77256 5.51143 5.42836 5.85563 5.21264 6.279L5.65815 6.50599C5.82593 6.17671 6.09364 5.90899 6.42292 5.74121L6.19593 5.29571ZM7.07114 5.0734C6.77457 5.09763 6.47968 5.15113 6.19593 5.29571L6.42292 5.74121C6.62451 5.6385 6.84632 5.59344 7.11185 5.57174L7.07114 5.0734ZM8.09675 5.05047C7.69796 5.05047 7.35417 5.05028 7.07114 5.0734L7.11185 5.57174C7.37001 5.55065 7.69057 5.55047 8.09674 5.55047L8.09675 5.05047ZM8.09676 5.05047H8.09675V5.55047H8.09676V5.05047ZM8.11741 5.05047H8.09676V5.55047H8.11741V5.05047ZM14.8961 5.05047H8.11741V5.55047H14.8961V5.05047Z" fill="#90908C"/>
</svg>
