<svg width="20" height="20" viewBox="0 0 20 20" fill="none" xmlns="http://www.w3.org/2000/svg">
<path d="M5.97287 13.3379L8.60784 11.92C8.28691 12.4939 7.83086 12.9834 7.25657 13.4054C6.68228 13.8443 6.14178 14.0469 5.65194 14.0469C5.21278 14.0469 4.87496 13.8612 4.6216 13.4898C4.36824 13.1185 4.25 12.6121 4.25 11.9706C4.25 11.4304 4.35135 10.8396 4.58782 10.1982C4.8074 9.55672 5.11143 8.93215 5.51681 8.34134C5.97287 7.66612 6.47959 7.12595 7.0201 6.7377C7.56061 6.34946 8.08422 6.14689 8.59095 6.14689C8.94566 6.14689 9.2328 6.26505 9.45238 6.4845C9.67196 6.70394 9.7902 6.99091 9.7902 7.32852C9.7902 8.12189 9.38482 8.78023 8.57406 9.30352C7.7633 9.84369 6.80052 10.1307 5.68572 10.1813C5.58438 10.4683 5.51681 10.7383 5.48303 10.9747C5.44925 11.211 5.43236 11.4304 5.43236 11.633C5.43236 12.0044 5.46614 12.342 5.56749 12.6458C5.66883 12.9497 5.80396 13.186 5.97287 13.3379ZM8.70919 7.37916C8.70919 7.17659 8.6754 6.99091 8.60784 6.85587C8.54028 6.72082 8.42204 6.61954 8.28691 6.55202C7.86464 6.70394 7.3917 7.12595 6.88497 7.83493C6.37825 8.5439 5.98976 9.30352 5.7195 10.0969C6.6485 9.79305 7.37481 9.38792 7.91532 8.89839C8.43893 8.42574 8.70919 7.91933 8.70919 7.37916Z" fill="#2E2E2B"/>
<path d="M12.108 7.74266C12.108 6.80772 12.8674 6.0498 13.804 6.0498C14.7407 6.0498 15.5 6.80772 15.5 7.74266C15.5 8.6776 14.7407 9.43552 13.804 9.43552C12.8674 9.43552 12.108 8.6776 12.108 7.74266Z" fill="#FF4F00"/>
<path d="M12.108 10.5641H15.5V13.9498H12.108V10.5641Z" fill="#FF4F00"/>
</svg>
