<svg width="24" height="24" viewBox="0 0 24 24" fill="none" xmlns="http://www.w3.org/2000/svg">
<path fill-rule="evenodd" clip-rule="evenodd" d="M20.9763 13.9701C21.2039 14.3393 21.0891 14.8231 20.7199 15.0506L16.0427 17.9338C16.0003 17.96 15.9583 17.9859 15.9169 18.0114C14.7201 18.7496 13.9554 19.2212 13.1199 19.4089C12.3825 19.5746 11.6175 19.5746 10.8801 19.409C10.0446 19.2213 9.27988 18.7498 8.08301 18.0117C8.04159 17.9862 7.99965 17.9603 7.95717 17.9341L3.28014 15.0515C2.91094 14.8239 2.79612 14.3402 3.02367 13.971C3.25122 13.6018 3.73498 13.487 4.10417 13.7145L8.78121 16.5971C10.1477 17.4394 10.6773 17.7538 11.2243 17.8766C11.735 17.9913 12.2649 17.9913 12.7756 17.8766C13.3226 17.7537 13.8521 17.4393 15.2186 16.5969L19.8958 13.7137C20.265 13.4861 20.7487 13.6009 20.9763 13.9701Z" fill="#90908C"/>
<path fill-rule="evenodd" clip-rule="evenodd" d="M12.1977 5.09198C12.0675 5.06337 11.9325 5.06337 11.8023 5.09198C11.6849 5.11776 11.557 5.18313 10.9988 5.51808L4.99082 9.12284L10.5303 12.4465C11.2589 12.8837 11.4719 13.0001 11.6802 13.0459C11.8909 13.0921 12.1091 13.0921 12.3198 13.0459C12.5281 13.0001 12.7411 12.8837 13.4697 12.4465L19.0092 9.12284L13.0013 5.51808C12.443 5.18313 12.3151 5.11776 12.1977 5.09198ZM11.4654 3.55801C11.8176 3.48066 12.1824 3.48066 12.5346 3.55801C12.9362 3.64619 13.2981 3.86392 13.7242 4.1202C13.7523 4.1371 13.7806 4.15416 13.8093 4.17136L20.419 8.1372C20.4241 8.14026 20.4294 8.14341 20.4347 8.14663C20.5058 8.18921 20.5989 8.24496 20.6756 8.30109C20.7561 8.36006 20.9221 8.49058 21.0211 8.7171C21.1342 8.97577 21.1342 9.2699 21.0211 9.52857C20.9221 9.75509 20.7561 9.88561 20.6756 9.94458C20.5989 10.0007 20.5058 10.0564 20.4348 10.099C20.4294 10.1023 20.4241 10.1054 20.419 10.1085L14.2777 13.7933C14.2446 13.8131 14.2119 13.8328 14.1796 13.8522C13.5947 14.2037 13.1485 14.4719 12.6566 14.5799C12.224 14.6749 11.776 14.6749 11.3434 14.5799C10.8516 14.4719 10.4053 14.2037 9.82041 13.8522C9.78814 13.8328 9.75545 13.8131 9.72231 13.7933L3.581 10.1085C3.57589 10.1054 3.57064 10.1023 3.56526 10.099C3.49419 10.0565 3.40114 10.0007 3.32446 9.94458C3.24388 9.88561 3.07792 9.75509 2.97889 9.52857C2.8658 9.2699 2.8658 8.97577 2.97889 8.7171C3.07792 8.49058 3.24388 8.36006 3.32446 8.30109C3.40114 8.24496 3.49419 8.18921 3.56526 8.14663C3.57064 8.14341 3.57589 8.14026 3.581 8.1372L10.1907 4.17136C10.2194 4.15416 10.2478 4.1371 10.2759 4.1202C10.7019 3.86392 11.0639 3.64619 11.4654 3.55801Z" fill="#90908C"/>
</svg>
