<svg width="24" height="24" viewBox="0 0 24 24" fill="none" xmlns="http://www.w3.org/2000/svg">
<path d="M7.8 19.6V18H12.88C13.3733 18 13.7733 17.9133 14.08 17.74C14.3867 17.5533 14.54 17.2666 14.54 16.88C14.54 16.5466 14.42 16.2733 14.18 16.06C13.9533 15.8333 13.56 15.6533 13 15.52L10.14 14.84C9.18 14.6133 8.41333 14.28 7.84 13.84C7.28 13.3866 7 12.7466 7 11.92C7 11.3866 7.14 10.9066 7.42 10.48C7.71333 10.0533 8.14 9.66664 8.7 9.31998C8.28667 9.01331 8.00667 8.67331 7.86 8.29998C7.71333 7.91331 7.64 7.52664 7.64 7.13998C7.64 6.56664 7.77333 6.07331 8.04 5.65998C8.32 5.24664 8.71333 4.93331 9.22 4.71998C9.72667 4.50664 10.32 4.39997 11 4.39997H15.7V5.99998H11.02C10.5267 5.99998 10.1267 6.08664 9.82 6.25997C9.51333 6.41998 9.36 6.69331 9.36 7.07997C9.36 7.42664 9.47333 7.70664 9.7 7.91997C9.94 8.13331 10.34 8.31331 10.9 8.45998L13.76 9.15998C14.72 9.39998 15.48 9.73997 16.04 10.18C16.6133 10.62 16.9 11.2533 16.9 12.08C16.9 12.6 16.7533 13.08 16.46 13.52C16.18 13.9466 15.76 14.3266 15.2 14.66C15.6133 14.9533 15.8933 15.3 16.04 15.7C16.1867 16.0866 16.26 16.4733 16.26 16.86C16.26 17.4333 16.12 17.9266 15.84 18.34C15.5733 18.74 15.1867 19.0466 14.68 19.26C14.1867 19.4866 13.5933 19.6 12.9 19.6H7.8ZM13.62 14.02C14.3 13.74 14.7333 13.4533 14.92 13.16C15.1067 12.8533 15.2 12.56 15.2 12.28C15.2 11.8 14.98 11.4466 14.54 11.22C14.1133 10.98 13.6267 10.7933 13.08 10.66L10.28 9.97998C9.6 10.2466 9.16667 10.5333 8.98 10.84C8.79333 11.1466 8.7 11.44 8.7 11.72C8.7 12.2 8.91333 12.56 9.34 12.8C9.78 13.0266 10.2733 13.2066 10.82 13.34L13.62 14.02Z" fill="#90908C"/>
</svg>
