<svg width="108" height="58" viewBox="0 0 108 58" fill="none" xmlns="http://www.w3.org/2000/svg">
<path opacity="0.9" d="M0.418803 47.898C0.418803 36.09 11.4068 19.608 20.6728 19.608C23.7068 19.608 25.6748 21.986 25.6748 25.02C25.6748 34.122 14.6868 38.96 6.2408 39.37C5.4208 41.912 4.9288 44.454 4.9288 46.832C4.9288 50.686 5.9128 54.294 7.6348 55.934L21.2468 46.832C18.4588 51.67 12.5548 57.82 6.8148 57.82C3.1248 57.82 0.418803 53.802 0.418803 47.898ZM19.5248 20.92C15.4248 22.314 9.1108 30.596 6.3228 39.042C15.5068 36.418 21.4108 30.924 21.4108 25.266C21.4108 23.298 20.8368 21.658 19.5248 20.92ZM34.7928 19.608L33.3988 33.466H34.7108C40.1228 25.676 46.1088 19.608 51.0288 19.608C54.4728 19.608 54.8008 22.478 53.6528 25.512L42.2548 55.36L55.8668 46.422C52.6688 51.342 46.5188 57.41 41.0248 57.41C38.9748 57.41 37.6628 55.77 38.6468 53.228L50.2908 22.888C45.0428 22.888 36.2688 32.318 31.9228 38.714L24.8708 57H20.2788L32.0868 26.25H23.7228C25.3628 23.052 30.2008 19.608 34.7928 19.608ZM70.1239 53.228L74.3059 43.306H73.0759C67.4999 51.26 61.0219 57.82 56.5939 57.82C54.3799 57.82 52.5759 55.442 52.5759 51.178C52.5759 37.73 65.4499 19.608 76.5199 19.608C78.9799 19.608 81.0299 20.428 82.9979 22.314L87.8359 18.132L73.4859 55.36L87.0979 46.422C83.9819 51.342 77.9139 57.41 72.4199 57.41C70.3699 57.41 69.0579 55.77 70.1239 53.228ZM73.7319 21.248C64.9579 26.66 56.6759 42.65 56.2659 55.278C61.1039 55.278 70.9439 45.438 75.3719 38.55L80.5379 25.758C79.3079 23.38 77.0119 21.33 73.7319 21.248ZM103.743 8.292C101.611 8.292 99.8887 6.652 99.8887 4.52C99.8887 2.388 101.611 0.665997 103.743 0.665997C105.875 0.665997 107.597 2.388 107.597 4.52C107.597 6.652 105.875 8.292 103.743 8.292ZM85.0467 53.228L95.3787 26.25H89.2287C92.1807 21.904 98.5767 19.444 102.267 19.444L88.4907 55.36L102.103 46.422C98.9047 51.342 92.8367 57.41 87.3427 57.41C85.2927 57.41 83.9806 55.77 85.0467 53.228Z" fill="#EDEDEC"/>
</svg>
