<svg width="24" height="24" viewBox="0 0 24 24" fill="none" xmlns="http://www.w3.org/2000/svg">
<path fill-rule="evenodd" clip-rule="evenodd" d="M21.0091 2.72727C21.0091 2.42602 20.7649 2.18182 20.4637 2.18182C20.1624 2.18182 19.9182 2.42602 19.9182 2.72727V3.78182H18.8637C18.5624 3.78182 18.3182 4.02602 18.3182 4.32727C18.3182 4.62852 18.5624 4.87273 18.8637 4.87273H19.9182V5.92727C19.9182 6.22852 20.1624 6.47273 20.4637 6.47273C20.7649 6.47273 21.0091 6.22852 21.0091 5.92727V4.87273H22.0637C22.3649 4.87273 22.6091 4.62852 22.6091 4.32727C22.6091 4.02602 22.3649 3.78182 22.0637 3.78182H21.0091V2.72727ZM17.7458 7.04515C18.012 7.31141 18.012 7.74312 17.7458 8.00939L16.1458 9.60939C15.8795 9.87565 15.4478 9.87566 15.1816 9.60939C14.9153 9.34313 14.9153 8.91143 15.1815 8.64516L16.7815 7.04516C17.0478 6.77889 17.4795 6.77888 17.7458 7.04515ZM14.5458 10.2452C14.8121 10.5114 14.8121 10.9431 14.5458 11.2094L3.34576 22.4094C3.07949 22.6757 2.64779 22.6757 2.38152 22.4094C2.11526 22.1431 2.11526 21.7114 2.38152 21.4452L13.5815 10.2452C13.8478 9.97889 14.2795 9.97889 14.5458 10.2452ZM20.4637 10.1818C20.7649 10.1818 21.0091 10.426 21.0091 10.7273V11.7818H22.0637C22.3649 11.7818 22.6091 12.026 22.6091 12.3273C22.6091 12.6285 22.3649 12.8727 22.0637 12.8727H21.0091V13.9273C21.0091 14.2285 20.7649 14.4727 20.4637 14.4727C20.1624 14.4727 19.9182 14.2285 19.9182 13.9273V12.8727H18.8637C18.5624 12.8727 18.3182 12.6285 18.3182 12.3273C18.3182 12.026 18.5624 11.7818 18.8637 11.7818H19.9182V10.7273C19.9182 10.426 20.1624 10.1818 20.4637 10.1818ZM13.0091 2.72727C13.0091 2.42602 12.7649 2.18182 12.4637 2.18182C12.1624 2.18182 11.9182 2.42602 11.9182 2.72727V3.78182H10.8637C10.5624 3.78182 10.3182 4.02602 10.3182 4.32727C10.3182 4.62852 10.5624 4.87273 10.8637 4.87273H11.9182V5.92727C11.9182 6.22852 12.1624 6.47273 12.4637 6.47273C12.7649 6.47273 13.0091 6.22852 13.0091 5.92727V4.87273H14.0637C14.3649 4.87273 14.6091 4.62852 14.6091 4.32727C14.6091 4.02602 14.3649 3.78182 14.0637 3.78182H13.0091V2.72727Z" fill="#FF4F00"/>
</svg>
