<svg width="32" height="32" viewBox="0 0 32 32" fill="none" xmlns="http://www.w3.org/2000/svg">
<rect width="32" height="32" rx="16" fill="#282826"/>
<path d="M12.1788 19.485L12.3588 18.93H12.2238C11.2488 20.235 10.3938 21.15 9.43377 21.15C8.75877 21.15 8.23377 20.445 8.23377 19.44C8.23377 16.875 10.8438 13.95 13.7238 13.95C14.2638 13.95 14.7888 14.085 15.2238 14.31L16.5138 13.95L14.3988 19.485H16.2288C15.3888 20.49 14.2038 21.15 13.1238 21.15C12.0738 21.15 11.9088 20.34 12.1788 19.485ZM12.9138 14.58C11.9238 15.27 10.6338 18.45 10.5138 19.8C11.2188 19.515 11.9838 18.84 12.7488 17.955L13.8138 15.315C13.5438 15.015 13.1838 14.745 12.9138 14.58ZM17.2755 19.485L20.3055 11.235L19.1355 10.32L23.5605 9.3L19.7505 19.485H21.5805C20.7405 20.49 19.6455 21.15 18.5055 21.15C17.3055 21.15 16.9905 20.31 17.2755 19.485Z" fill="#A1A09A"/>
</svg>
