<svg width="24" height="24" viewBox="0 0 24 24" fill="none" xmlns="http://www.w3.org/2000/svg">
<path fill-rule="evenodd" clip-rule="evenodd" d="M12.4065 2.91131C12.1555 2.76296 11.8436 2.76296 11.5926 2.91131L2.79256 8.11131C2.54898 8.25524 2.39954 8.51712 2.39954 8.80005C2.39954 9.08297 2.54898 9.34486 2.79256 9.48879L11.5926 14.6888C11.8436 14.8371 12.1555 14.8371 12.4065 14.6888L21.2065 9.48879C21.4501 9.34486 21.5995 9.08297 21.5995 8.80005C21.5995 8.51712 21.4501 8.25524 21.2065 8.11131L12.4065 2.91131ZM11.9995 13.0708L4.77209 8.80005L11.9995 4.52928L19.227 8.80005L11.9995 13.0708ZM3.60652 13.3113C3.22614 13.0865 2.73557 13.2127 2.5108 13.5931C2.28603 13.9734 2.41218 14.464 2.79256 14.6888L11.5926 19.8888C11.8436 20.0371 12.1555 20.0371 12.4065 19.8888L21.2065 14.6888C21.5869 14.464 21.7131 13.9734 21.4883 13.5931C21.2635 13.2127 20.7729 13.0865 20.3926 13.3113L11.9995 18.2708L3.60652 13.3113Z" fill="#FF4F00"/>
</svg>
