<svg width="123" height="176" viewBox="0 0 123 176" fill="none" xmlns="http://www.w3.org/2000/svg">
<path d="M38.25 160.205L96.75 128.615C89.625 141.402 79.5 152.308 66.75 161.709C54 171.487 42 176 31.125 176C21.375 176 13.875 171.863 8.25 163.59C2.625 155.316 0 144.034 0 129.744C0 117.709 2.25 104.547 7.5 90.2564C12.375 75.9658 19.125 62.0513 28.125 48.8889C38.25 33.8461 49.5 21.812 61.5 13.1624C73.5 4.51282 85.125 0 96.375 0C104.25 0 110.625 2.63247 115.5 7.52137C120.375 12.4103 123 18.8034 123 26.3248C123 44 114 58.6667 96 70.3248C78 82.359 56.625 88.7521 31.875 89.8803C29.625 96.2735 28.125 102.291 27.375 107.556C26.625 112.821 26.25 117.709 26.25 122.222C26.25 130.496 27 138.017 29.25 144.786C31.5 151.556 34.5 156.82 38.25 160.205ZM99 27.453C99 22.9402 98.25 18.8034 96.75 15.7949C95.25 12.7863 92.625 10.5299 89.625 9.02564C80.25 12.4103 69.75 21.812 58.5 37.6068C47.25 53.4017 38.625 70.3248 32.625 88C53.25 81.2308 69.375 72.2051 81.375 61.2992C93 50.7692 99 39.4872 99 27.453Z" fill="#F3F3F2"/>
</svg>
