<svg width="1280" height="52" viewBox="0 0 1280 52" fill="none" xmlns="http://www.w3.org/2000/svg">
<rect x="0.5" width="157" height="52" rx="10" fill="white"/>
<path d="M31.532 17.768H34.076L40.724 35H38.396L36.644 30.464H28.916L27.188 35H24.884L31.532 17.768ZM32.756 20.36L29.684 28.448H35.876L32.756 20.36ZM44.9366 17.768V35H42.7766V17.768H44.9366ZM50.7022 17.768V35H48.5422V17.768H50.7022ZM57.9783 32.336L59.6583 31.112C59.8823 31.592 60.1863 32.008 60.5703 32.36C60.9703 32.712 61.4183 32.984 61.9143 33.176C62.4263 33.368 62.9543 33.464 63.4983 33.464C63.9943 33.464 64.4503 33.392 64.8663 33.248C65.2823 33.104 65.6183 32.888 65.8743 32.6C66.1303 32.296 66.2583 31.92 66.2583 31.472C66.2583 31.008 66.1303 30.664 65.8743 30.44C65.6183 30.2 65.2423 30.016 64.7463 29.888C64.2663 29.76 63.6823 29.624 62.9943 29.48C62.4823 29.368 61.9703 29.24 61.4583 29.096C60.9623 28.952 60.5063 28.768 60.0903 28.544C59.6903 28.304 59.3703 27.984 59.1303 27.584C58.8903 27.168 58.7703 26.64 58.7703 26C58.7703 25.248 58.9703 24.592 59.3703 24.032C59.7703 23.456 60.3143 23.008 61.0023 22.688C61.7063 22.368 62.4983 22.208 63.3783 22.208C64.5143 22.208 65.5143 22.456 66.3783 22.952C67.2423 23.432 67.8583 24.048 68.2263 24.8L66.6903 26.024C66.3703 25.4 65.9223 24.904 65.3463 24.536C64.7703 24.168 64.0823 23.984 63.2823 23.984C62.5623 23.984 61.9783 24.152 61.5303 24.488C61.0983 24.824 60.8823 25.272 60.8823 25.832C60.8823 26.216 60.9943 26.52 61.2183 26.744C61.4583 26.952 61.7943 27.12 62.2263 27.248C62.6583 27.36 63.1623 27.48 63.7383 27.608C64.2823 27.736 64.8263 27.872 65.3703 28.016C65.9143 28.16 66.4103 28.36 66.8583 28.616C67.3223 28.856 67.6903 29.192 67.9623 29.624C68.2343 30.04 68.3703 30.592 68.3703 31.28C68.3703 32.08 68.1463 32.784 67.6983 33.392C67.2663 33.984 66.6823 34.448 65.9463 34.784C65.2103 35.104 64.3943 35.264 63.4983 35.264C62.7463 35.264 62.0023 35.16 61.2663 34.952C60.5463 34.728 59.8983 34.4 59.3223 33.968C58.7463 33.52 58.2983 32.976 57.9783 32.336ZM77.0902 35.264C76.2102 35.264 75.4342 35.072 74.7622 34.688C74.0902 34.304 73.5702 33.8 73.2022 33.176V39.32H71.0422V22.448H73.2022V24.272C73.5702 23.664 74.0902 23.168 74.7622 22.784C75.4342 22.4 76.2102 22.208 77.0902 22.208C78.2582 22.208 79.2422 22.504 80.0422 23.096C80.8582 23.688 81.4822 24.48 81.9142 25.472C82.3462 26.448 82.5622 27.536 82.5622 28.736C82.5622 29.92 82.3462 31.008 81.9142 32C81.4822 32.992 80.8582 33.784 80.0422 34.376C79.2422 34.968 78.2582 35.264 77.0902 35.264ZM73.1542 28.304V29.192C73.1542 29.912 73.2502 30.536 73.4422 31.064C73.6502 31.592 73.9222 32.024 74.2582 32.36C74.5942 32.696 74.9702 32.952 75.3862 33.128C75.8182 33.288 76.2582 33.368 76.7062 33.368C77.4902 33.368 78.1542 33.168 78.6982 32.768C79.2422 32.368 79.6582 31.824 79.9462 31.136C80.2342 30.432 80.3782 29.632 80.3782 28.736C80.3782 27.824 80.2342 27.024 79.9462 26.336C79.6582 25.632 79.2422 25.088 78.6982 24.704C78.1542 24.304 77.4902 24.104 76.7062 24.104C76.2582 24.104 75.8182 24.184 75.3862 24.344C74.9702 24.504 74.5942 24.76 74.2582 25.112C73.9222 25.448 73.6502 25.88 73.4422 26.408C73.2502 26.936 73.1542 27.568 73.1542 28.304ZM88.4362 35.216C87.6842 35.216 86.9882 35.072 86.3482 34.784C85.7242 34.496 85.2282 34.088 84.8602 33.56C84.4922 33.016 84.3082 32.368 84.3082 31.616C84.3082 30.784 84.5082 30.104 84.9082 29.576C85.3082 29.032 85.8682 28.6 86.5882 28.28C87.3082 27.96 88.1322 27.704 89.0602 27.512L92.1082 26.888V26.36C92.1082 25.64 91.9082 25.088 91.5082 24.704C91.1082 24.304 90.4842 24.104 89.6362 24.104C88.1002 24.104 87.1322 24.816 86.7322 26.24L84.6922 25.712C84.9962 24.688 85.5882 23.848 86.4682 23.192C87.3482 22.536 88.4282 22.208 89.7082 22.208C91.1162 22.208 92.2202 22.552 93.0202 23.24C93.8362 23.912 94.2442 24.92 94.2442 26.264V32.384C94.2442 32.784 94.3642 33.056 94.6042 33.2C94.8442 33.344 95.1722 33.368 95.5882 33.272V35C93.6522 35.24 92.5562 34.768 92.3002 33.584C91.9162 34.08 91.3882 34.48 90.7162 34.784C90.0442 35.072 89.2842 35.216 88.4362 35.216ZM92.1082 30.728V28.568L89.6602 29.096C88.7002 29.288 87.9242 29.552 87.3322 29.888C86.7402 30.224 86.4442 30.768 86.4442 31.52C86.4442 32.128 86.6442 32.608 87.0442 32.96C87.4602 33.296 88.0122 33.464 88.7002 33.464C89.3242 33.464 89.8922 33.352 90.4042 33.128C90.9162 32.888 91.3242 32.56 91.6282 32.144C91.9482 31.728 92.1082 31.256 92.1082 30.728ZM99.221 28.736C99.221 29.68 99.381 30.504 99.701 31.208C100.021 31.896 100.461 32.432 101.021 32.816C101.597 33.184 102.253 33.368 102.989 33.368C103.853 33.368 104.541 33.12 105.053 32.624C105.581 32.128 105.933 31.488 106.109 30.704L108.029 31.592C107.837 32.28 107.509 32.904 107.045 33.464C106.581 34.024 106.005 34.464 105.317 34.784C104.645 35.104 103.869 35.264 102.989 35.264C101.821 35.264 100.789 34.992 99.893 34.448C99.013 33.888 98.317 33.12 97.805 32.144C97.309 31.152 97.061 30.016 97.061 28.736C97.061 27.44 97.309 26.304 97.805 25.328C98.317 24.336 99.013 23.568 99.893 23.024C100.789 22.48 101.821 22.208 102.989 22.208C103.869 22.208 104.645 22.368 105.317 22.688C105.989 22.992 106.549 23.416 106.997 23.96C107.461 24.488 107.789 25.104 107.981 25.808L106.109 26.744C105.933 25.976 105.581 25.344 105.053 24.848C104.541 24.336 103.853 24.08 102.989 24.08C102.253 24.08 101.597 24.272 101.021 24.656C100.461 25.024 100.021 25.56 99.701 26.264C99.381 26.952 99.221 27.776 99.221 28.736ZM115.41 35.264C114.258 35.264 113.234 34.992 112.338 34.448C111.458 33.888 110.77 33.12 110.274 32.144C109.778 31.152 109.53 30.016 109.53 28.736C109.53 27.488 109.77 26.376 110.25 25.4C110.746 24.408 111.426 23.632 112.29 23.072C113.17 22.496 114.178 22.208 115.314 22.208C116.482 22.208 117.458 22.48 118.242 23.024C119.042 23.568 119.642 24.304 120.042 25.232C120.458 26.144 120.666 27.184 120.666 28.352V29.072H111.594C111.658 30.384 112.034 31.432 112.722 32.216C113.426 33 114.322 33.392 115.41 33.392C116.258 33.392 116.962 33.176 117.522 32.744C118.098 32.312 118.482 31.728 118.674 30.992L120.57 31.664C120.186 32.784 119.538 33.664 118.626 34.304C117.73 34.944 116.658 35.264 115.41 35.264ZM115.29 24.056C114.378 24.056 113.602 24.352 112.962 24.944C112.322 25.52 111.906 26.344 111.714 27.416H118.482C118.466 26.824 118.346 26.272 118.122 25.76C117.898 25.248 117.554 24.84 117.09 24.536C116.626 24.216 116.026 24.056 115.29 24.056ZM121.963 32.336L123.643 31.112C123.867 31.592 124.171 32.008 124.555 32.36C124.955 32.712 125.403 32.984 125.899 33.176C126.411 33.368 126.939 33.464 127.483 33.464C127.979 33.464 128.435 33.392 128.851 33.248C129.267 33.104 129.603 32.888 129.859 32.6C130.115 32.296 130.243 31.92 130.243 31.472C130.243 31.008 130.115 30.664 129.859 30.44C129.603 30.2 129.227 30.016 128.731 29.888C128.251 29.76 127.667 29.624 126.979 29.48C126.467 29.368 125.955 29.24 125.443 29.096C124.947 28.952 124.491 28.768 124.075 28.544C123.675 28.304 123.355 27.984 123.115 27.584C122.875 27.168 122.755 26.64 122.755 26C122.755 25.248 122.955 24.592 123.355 24.032C123.755 23.456 124.299 23.008 124.987 22.688C125.691 22.368 126.483 22.208 127.363 22.208C128.499 22.208 129.499 22.456 130.363 22.952C131.227 23.432 131.843 24.048 132.211 24.8L130.675 26.024C130.355 25.4 129.907 24.904 129.331 24.536C128.755 24.168 128.067 23.984 127.267 23.984C126.547 23.984 125.963 24.152 125.515 24.488C125.083 24.824 124.867 25.272 124.867 25.832C124.867 26.216 124.979 26.52 125.203 26.744C125.443 26.952 125.779 27.12 126.211 27.248C126.643 27.36 127.147 27.48 127.723 27.608C128.267 27.736 128.811 27.872 129.355 28.016C129.899 28.16 130.395 28.36 130.843 28.616C131.307 28.856 131.675 29.192 131.947 29.624C132.219 30.04 132.355 30.592 132.355 31.28C132.355 32.08 132.131 32.784 131.683 33.392C131.251 33.984 130.667 34.448 129.931 34.784C129.195 35.104 128.379 35.264 127.483 35.264C126.731 35.264 125.987 35.16 125.251 34.952C124.531 34.728 123.883 34.4 123.307 33.968C122.731 33.52 122.283 32.976 121.963 32.336Z" fill="#51504B"/>
<g opacity="0.5">
<rect x="181.5" width="163" height="52" rx="10" fill="white"/>
<path d="M219.876 19.784H214.044V35H211.74V19.784H205.908V17.768H219.876V19.784ZM221.855 35V17.768H224.015V24.152C224.383 23.64 224.879 23.192 225.503 22.808C226.127 22.408 226.879 22.208 227.759 22.208C229.087 22.208 230.111 22.632 230.831 23.48C231.567 24.312 231.935 25.392 231.935 26.72V35H229.775V27.296C229.775 26.416 229.575 25.688 229.175 25.112C228.775 24.52 228.103 24.224 227.159 24.224C226.647 24.224 226.143 24.352 225.647 24.608C225.167 24.864 224.775 25.24 224.471 25.736C224.167 26.216 224.015 26.808 224.015 27.512V35H221.855ZM235.306 20.264V17.768H237.658V20.264H235.306ZM237.562 22.448V35H235.402V22.448H237.562ZM239.775 32.336L241.455 31.112C241.679 31.592 241.983 32.008 242.367 32.36C242.767 32.712 243.215 32.984 243.711 33.176C244.223 33.368 244.751 33.464 245.295 33.464C245.791 33.464 246.247 33.392 246.663 33.248C247.079 33.104 247.415 32.888 247.671 32.6C247.927 32.296 248.055 31.92 248.055 31.472C248.055 31.008 247.927 30.664 247.671 30.44C247.415 30.2 247.039 30.016 246.543 29.888C246.063 29.76 245.479 29.624 244.791 29.48C244.279 29.368 243.767 29.24 243.255 29.096C242.759 28.952 242.303 28.768 241.887 28.544C241.487 28.304 241.167 27.984 240.927 27.584C240.687 27.168 240.567 26.64 240.567 26C240.567 25.248 240.767 24.592 241.167 24.032C241.567 23.456 242.111 23.008 242.799 22.688C243.503 22.368 244.295 22.208 245.175 22.208C246.311 22.208 247.311 22.456 248.175 22.952C249.039 23.432 249.655 24.048 250.023 24.8L248.487 26.024C248.167 25.4 247.719 24.904 247.143 24.536C246.567 24.168 245.879 23.984 245.079 23.984C244.359 23.984 243.775 24.152 243.327 24.488C242.895 24.824 242.679 25.272 242.679 25.832C242.679 26.216 242.791 26.52 243.015 26.744C243.255 26.952 243.591 27.12 244.023 27.248C244.455 27.36 244.959 27.48 245.535 27.608C246.079 27.736 246.623 27.872 247.167 28.016C247.711 28.16 248.207 28.36 248.655 28.616C249.119 28.856 249.487 29.192 249.759 29.624C250.031 30.04 250.167 30.592 250.167 31.28C250.167 32.08 249.943 32.784 249.495 33.392C249.063 33.984 248.479 34.448 247.743 34.784C247.007 35.104 246.191 35.264 245.295 35.264C244.543 35.264 243.799 35.16 243.063 34.952C242.343 34.728 241.695 34.4 241.119 33.968C240.543 33.52 240.095 32.976 239.775 32.336ZM256.51 32.336L258.19 31.112C258.414 31.592 258.718 32.008 259.102 32.36C259.502 32.712 259.95 32.984 260.446 33.176C260.958 33.368 261.486 33.464 262.03 33.464C262.526 33.464 262.982 33.392 263.398 33.248C263.814 33.104 264.15 32.888 264.406 32.6C264.662 32.296 264.79 31.92 264.79 31.472C264.79 31.008 264.662 30.664 264.406 30.44C264.15 30.2 263.774 30.016 263.278 29.888C262.798 29.76 262.214 29.624 261.526 29.48C261.014 29.368 260.502 29.24 259.99 29.096C259.494 28.952 259.038 28.768 258.622 28.544C258.222 28.304 257.902 27.984 257.662 27.584C257.422 27.168 257.302 26.64 257.302 26C257.302 25.248 257.502 24.592 257.902 24.032C258.302 23.456 258.846 23.008 259.534 22.688C260.238 22.368 261.03 22.208 261.91 22.208C263.046 22.208 264.046 22.456 264.91 22.952C265.774 23.432 266.39 24.048 266.758 24.8L265.222 26.024C264.902 25.4 264.454 24.904 263.878 24.536C263.302 24.168 262.614 23.984 261.814 23.984C261.094 23.984 260.51 24.152 260.062 24.488C259.63 24.824 259.414 25.272 259.414 25.832C259.414 26.216 259.526 26.52 259.75 26.744C259.99 26.952 260.326 27.12 260.758 27.248C261.19 27.36 261.694 27.48 262.27 27.608C262.814 27.736 263.358 27.872 263.902 28.016C264.446 28.16 264.942 28.36 265.39 28.616C265.854 28.856 266.222 29.192 266.494 29.624C266.766 30.04 266.902 30.592 266.902 31.28C266.902 32.08 266.678 32.784 266.23 33.392C265.798 33.984 265.214 34.448 264.478 34.784C263.742 35.104 262.926 35.264 262.03 35.264C261.278 35.264 260.534 35.16 259.798 34.952C259.078 34.728 258.43 34.4 257.854 33.968C257.278 33.52 256.83 32.976 256.51 32.336ZM275.621 35.264C274.741 35.264 273.965 35.072 273.293 34.688C272.621 34.304 272.101 33.8 271.733 33.176V39.32H269.573V22.448H271.733V24.272C272.101 23.664 272.621 23.168 273.293 22.784C273.965 22.4 274.741 22.208 275.621 22.208C276.789 22.208 277.773 22.504 278.573 23.096C279.389 23.688 280.013 24.48 280.445 25.472C280.877 26.448 281.093 27.536 281.093 28.736C281.093 29.92 280.877 31.008 280.445 32C280.013 32.992 279.389 33.784 278.573 34.376C277.773 34.968 276.789 35.264 275.621 35.264ZM271.685 28.304V29.192C271.685 29.912 271.781 30.536 271.973 31.064C272.181 31.592 272.453 32.024 272.789 32.36C273.125 32.696 273.501 32.952 273.917 33.128C274.349 33.288 274.789 33.368 275.237 33.368C276.021 33.368 276.685 33.168 277.229 32.768C277.773 32.368 278.189 31.824 278.477 31.136C278.765 30.432 278.909 29.632 278.909 28.736C278.909 27.824 278.765 27.024 278.477 26.336C278.189 25.632 277.773 25.088 277.229 24.704C276.685 24.304 276.021 24.104 275.237 24.104C274.789 24.104 274.349 24.184 273.917 24.344C273.501 24.504 273.125 24.76 272.789 25.112C272.453 25.448 272.181 25.88 271.973 26.408C271.781 26.936 271.685 27.568 271.685 28.304ZM286.967 35.216C286.215 35.216 285.519 35.072 284.879 34.784C284.255 34.496 283.759 34.088 283.391 33.56C283.023 33.016 282.839 32.368 282.839 31.616C282.839 30.784 283.039 30.104 283.439 29.576C283.839 29.032 284.399 28.6 285.119 28.28C285.839 27.96 286.663 27.704 287.591 27.512L290.639 26.888V26.36C290.639 25.64 290.439 25.088 290.039 24.704C289.639 24.304 289.015 24.104 288.167 24.104C286.631 24.104 285.663 24.816 285.263 26.24L283.223 25.712C283.527 24.688 284.119 23.848 284.999 23.192C285.879 22.536 286.959 22.208 288.239 22.208C289.647 22.208 290.751 22.552 291.551 23.24C292.367 23.912 292.775 24.92 292.775 26.264V32.384C292.775 32.784 292.895 33.056 293.135 33.2C293.375 33.344 293.703 33.368 294.119 33.272V35C292.183 35.24 291.087 34.768 290.831 33.584C290.447 34.08 289.919 34.48 289.247 34.784C288.575 35.072 287.815 35.216 286.967 35.216ZM290.639 30.728V28.568L288.191 29.096C287.231 29.288 286.455 29.552 285.863 29.888C285.271 30.224 284.975 30.768 284.975 31.52C284.975 32.128 285.175 32.608 285.575 32.96C285.991 33.296 286.543 33.464 287.231 33.464C287.855 33.464 288.423 33.352 288.935 33.128C289.447 32.888 289.855 32.56 290.159 32.144C290.479 31.728 290.639 31.256 290.639 30.728ZM297.752 28.736C297.752 29.68 297.912 30.504 298.232 31.208C298.552 31.896 298.992 32.432 299.552 32.816C300.128 33.184 300.784 33.368 301.52 33.368C302.384 33.368 303.072 33.12 303.584 32.624C304.112 32.128 304.464 31.488 304.64 30.704L306.56 31.592C306.368 32.28 306.04 32.904 305.576 33.464C305.112 34.024 304.536 34.464 303.848 34.784C303.176 35.104 302.4 35.264 301.52 35.264C300.352 35.264 299.32 34.992 298.424 34.448C297.544 33.888 296.848 33.12 296.336 32.144C295.84 31.152 295.592 30.016 295.592 28.736C295.592 27.44 295.84 26.304 296.336 25.328C296.848 24.336 297.544 23.568 298.424 23.024C299.32 22.48 300.352 22.208 301.52 22.208C302.4 22.208 303.176 22.368 303.848 22.688C304.52 22.992 305.08 23.416 305.528 23.96C305.992 24.488 306.32 25.104 306.512 25.808L304.64 26.744C304.464 25.976 304.112 25.344 303.584 24.848C303.072 24.336 302.384 24.08 301.52 24.08C300.784 24.08 300.128 24.272 299.552 24.656C298.992 25.024 298.552 25.56 298.232 26.264C297.912 26.952 297.752 27.776 297.752 28.736ZM313.941 35.264C312.789 35.264 311.765 34.992 310.869 34.448C309.989 33.888 309.301 33.12 308.805 32.144C308.309 31.152 308.061 30.016 308.061 28.736C308.061 27.488 308.301 26.376 308.781 25.4C309.277 24.408 309.957 23.632 310.821 23.072C311.701 22.496 312.709 22.208 313.845 22.208C315.013 22.208 315.989 22.48 316.773 23.024C317.573 23.568 318.173 24.304 318.573 25.232C318.989 26.144 319.197 27.184 319.197 28.352V29.072H310.125C310.189 30.384 310.565 31.432 311.253 32.216C311.957 33 312.853 33.392 313.941 33.392C314.789 33.392 315.493 33.176 316.053 32.744C316.629 32.312 317.013 31.728 317.205 30.992L319.101 31.664C318.717 32.784 318.069 33.664 317.157 34.304C316.261 34.944 315.189 35.264 313.941 35.264ZM313.821 24.056C312.909 24.056 312.133 24.352 311.493 24.944C310.853 25.52 310.437 26.344 310.245 27.416H317.013C316.997 26.824 316.877 26.272 316.653 25.76C316.429 25.248 316.085 24.84 315.621 24.536C315.157 24.216 314.557 24.056 313.821 24.056Z" fill="#51504B"/>
</g>
<rect x="368.5" width="771" height="52" rx="10" fill="white"/>
<path d="M392.596 31.448L394.396 30.008C394.94 31.032 395.668 31.832 396.58 32.408C397.508 32.984 398.532 33.272 399.652 33.272C400.404 33.272 401.076 33.152 401.668 32.912C402.26 32.672 402.732 32.328 403.084 31.88C403.436 31.416 403.612 30.856 403.612 30.2C403.612 29.496 403.404 28.968 402.988 28.616C402.588 28.248 402.044 27.96 401.356 27.752C400.668 27.544 399.884 27.336 399.004 27.128C398.332 26.968 397.668 26.784 397.012 26.576C396.372 26.368 395.796 26.104 395.284 25.784C394.772 25.464 394.364 25.04 394.06 24.512C393.756 23.984 393.604 23.312 393.604 22.496C393.604 21.488 393.868 20.608 394.396 19.856C394.924 19.104 395.628 18.528 396.508 18.128C397.404 17.712 398.396 17.504 399.484 17.504C400.988 17.504 402.268 17.824 403.324 18.464C404.38 19.104 405.164 19.912 405.676 20.888L403.924 22.28C403.476 21.448 402.892 20.776 402.172 20.264C401.468 19.752 400.556 19.496 399.436 19.496C398.748 19.496 398.132 19.616 397.588 19.856C397.044 20.096 396.612 20.424 396.292 20.84C395.988 21.256 395.836 21.744 395.836 22.304C395.836 22.912 396.004 23.384 396.34 23.72C396.676 24.056 397.148 24.32 397.756 24.512C398.364 24.704 399.068 24.896 399.868 25.088C400.588 25.248 401.3 25.432 402.004 25.64C402.708 25.832 403.348 26.096 403.924 26.432C404.516 26.768 404.988 27.224 405.34 27.8C405.692 28.36 405.868 29.096 405.868 30.008C405.868 31.08 405.58 32.008 405.004 32.792C404.444 33.576 403.684 34.184 402.724 34.616C401.78 35.048 400.74 35.264 399.604 35.264C398.612 35.264 397.652 35.112 396.724 34.808C395.812 34.488 394.996 34.04 394.276 33.464C393.556 32.888 392.996 32.216 392.596 31.448ZM413.589 35.264C412.437 35.264 411.413 34.992 410.517 34.448C409.637 33.888 408.949 33.12 408.453 32.144C407.957 31.152 407.709 30.016 407.709 28.736C407.709 27.488 407.949 26.376 408.429 25.4C408.925 24.408 409.605 23.632 410.469 23.072C411.349 22.496 412.357 22.208 413.493 22.208C414.661 22.208 415.637 22.48 416.421 23.024C417.221 23.568 417.821 24.304 418.221 25.232C418.637 26.144 418.845 27.184 418.845 28.352V29.072H409.773C409.837 30.384 410.213 31.432 410.901 32.216C411.605 33 412.501 33.392 413.589 33.392C414.437 33.392 415.141 33.176 415.701 32.744C416.277 32.312 416.661 31.728 416.853 30.992L418.749 31.664C418.365 32.784 417.717 33.664 416.805 34.304C415.909 34.944 414.837 35.264 413.589 35.264ZM413.469 24.056C412.557 24.056 411.781 24.352 411.141 24.944C410.501 25.52 410.085 26.344 409.893 27.416H416.661C416.645 26.824 416.525 26.272 416.301 25.76C416.077 25.248 415.733 24.84 415.269 24.536C414.805 24.216 414.205 24.056 413.469 24.056ZM424.819 35.216C424.067 35.216 423.371 35.072 422.731 34.784C422.107 34.496 421.611 34.088 421.243 33.56C420.875 33.016 420.691 32.368 420.691 31.616C420.691 30.784 420.891 30.104 421.291 29.576C421.691 29.032 422.251 28.6 422.971 28.28C423.691 27.96 424.515 27.704 425.443 27.512L428.491 26.888V26.36C428.491 25.64 428.291 25.088 427.891 24.704C427.491 24.304 426.867 24.104 426.019 24.104C424.483 24.104 423.515 24.816 423.115 26.24L421.075 25.712C421.379 24.688 421.971 23.848 422.851 23.192C423.731 22.536 424.811 22.208 426.091 22.208C427.499 22.208 428.603 22.552 429.403 23.24C430.219 23.912 430.627 24.92 430.627 26.264V32.384C430.627 32.784 430.747 33.056 430.987 33.2C431.227 33.344 431.555 33.368 431.971 33.272V35C430.035 35.24 428.939 34.768 428.683 33.584C428.299 34.08 427.771 34.48 427.099 34.784C426.427 35.072 425.667 35.216 424.819 35.216ZM428.491 30.728V28.568L426.043 29.096C425.083 29.288 424.307 29.552 423.715 29.888C423.123 30.224 422.827 30.768 422.827 31.52C422.827 32.128 423.027 32.608 423.427 32.96C423.843 33.296 424.395 33.464 425.083 33.464C425.707 33.464 426.275 33.352 426.787 33.128C427.299 32.888 427.707 32.56 428.011 32.144C428.331 31.728 428.491 31.256 428.491 30.728ZM440.812 22.4V24.584C440.636 24.552 440.468 24.528 440.308 24.512C440.148 24.496 439.964 24.488 439.756 24.488C439.148 24.488 438.596 24.64 438.1 24.944C437.604 25.248 437.204 25.672 436.9 26.216C436.612 26.76 436.468 27.4 436.468 28.136V35H434.308V22.448H436.468V24.584C436.74 23.944 437.172 23.416 437.764 23C438.372 22.568 439.1 22.352 439.948 22.352C440.124 22.352 440.284 22.36 440.428 22.376C440.572 22.376 440.7 22.384 440.812 22.4ZM443.971 28.736C443.971 29.68 444.131 30.504 444.451 31.208C444.771 31.896 445.211 32.432 445.771 32.816C446.347 33.184 447.003 33.368 447.739 33.368C448.603 33.368 449.291 33.12 449.803 32.624C450.331 32.128 450.683 31.488 450.859 30.704L452.779 31.592C452.587 32.28 452.259 32.904 451.795 33.464C451.331 34.024 450.755 34.464 450.067 34.784C449.395 35.104 448.619 35.264 447.739 35.264C446.571 35.264 445.539 34.992 444.643 34.448C443.763 33.888 443.067 33.12 442.555 32.144C442.059 31.152 441.811 30.016 441.811 28.736C441.811 27.44 442.059 26.304 442.555 25.328C443.067 24.336 443.763 23.568 444.643 23.024C445.539 22.48 446.571 22.208 447.739 22.208C448.619 22.208 449.395 22.368 450.067 22.688C450.739 22.992 451.299 23.416 451.747 23.96C452.211 24.488 452.539 25.104 452.731 25.808L450.859 26.744C450.683 25.976 450.331 25.344 449.803 24.848C449.291 24.336 448.603 24.08 447.739 24.08C447.003 24.08 446.347 24.272 445.771 24.656C445.211 25.024 444.771 25.56 444.451 26.264C444.131 26.952 443.971 27.776 443.971 28.736ZM455.144 35V17.768H457.304V24.152C457.672 23.64 458.168 23.192 458.792 22.808C459.416 22.408 460.168 22.208 461.048 22.208C462.376 22.208 463.4 22.632 464.12 23.48C464.856 24.312 465.224 25.392 465.224 26.72V35H463.064V27.296C463.064 26.416 462.864 25.688 462.464 25.112C462.064 24.52 461.392 24.224 460.448 24.224C459.936 24.224 459.432 24.352 458.936 24.608C458.456 24.864 458.064 25.24 457.76 25.736C457.456 26.216 457.304 26.808 457.304 27.512V35H455.144Z" fill="#706F6C"/>
</svg>
