<svg width="24" height="24" viewBox="0 0 24 24" fill="none" xmlns="http://www.w3.org/2000/svg">
<path fill-rule="evenodd" clip-rule="evenodd" d="M14.5651 9.33333H5.6254C5.58956 9.33333 5.5558 9.33334 5.52384 9.33336C5.52381 9.36533 5.52381 9.39909 5.52381 9.43492V18.3746C5.52381 18.4104 5.52381 18.4442 5.52384 18.4762C5.5558 18.4762 5.58956 18.4762 5.6254 18.4762H14.5651C14.6009 18.4762 14.6347 18.4762 14.6666 18.4762C14.6667 18.4442 14.6667 18.4104 14.6667 18.3746V9.43492C14.6667 9.39909 14.6667 9.36533 14.6666 9.33336C14.6347 9.33334 14.6009 9.33333 14.5651 9.33333ZM15.1343 9.34486L15.1319 9.3445L15.1343 9.34486ZM14.6555 8.8682L14.6551 8.86572L14.6555 8.8682ZM14.6551 18.9438L14.6555 18.9414L14.6551 18.9438ZM15.1318 18.465L15.1343 18.4647L15.1318 18.465ZM5.05619 18.4647L5.05868 18.465L5.05619 18.4647ZM5.53497 18.9413L5.53533 18.9438L5.53497 18.9413ZM5.53533 8.86572L5.53497 8.86817L5.53533 8.86572ZM5.05867 9.34449L5.05619 9.34486L5.05867 9.34449ZM4.11072 8.3642C4 8.58151 4 8.86598 4 9.43492V18.3746C4 18.9435 4 19.228 4.11072 19.4453C4.20812 19.6365 4.36353 19.7919 4.55468 19.8893C4.77198 20 5.05645 20 5.6254 20H14.5651C15.134 20 15.4185 20 15.6358 19.8893C15.8269 19.7919 15.9824 19.6365 16.0798 19.4453C16.1905 19.228 16.1905 18.9435 16.1905 18.3746V9.43492C16.1905 8.86598 16.1905 8.58151 16.0798 8.3642C15.9824 8.17305 15.8269 8.01764 15.6358 7.92025C15.4185 7.80952 15.134 7.80952 14.5651 7.80952H5.6254C5.05645 7.80952 4.77198 7.80952 4.55468 7.92025C4.36353 8.01764 4.20812 8.17305 4.11072 8.3642Z" fill="#90908C"/>
<path fill-rule="evenodd" clip-rule="evenodd" d="M7.30159 4.7619C7.30159 4.34112 7.6427 4 8.06349 4H17.2064C18.7492 4 20 5.25076 20 6.79365V14.9206C20 15.3414 19.6589 15.6825 19.2381 15.6825C18.8173 15.6825 18.4762 15.3414 18.4762 14.9206V6.79365C18.4762 6.09234 17.9077 5.52381 17.2064 5.52381H8.06349C7.6427 5.52381 7.30159 5.18269 7.30159 4.7619Z" fill="#90908C"/>
</svg>
